<svg width="182" height="145" viewBox="0 0 182 145" fill="none" xmlns="http://www.w3.org/2000/svg">
<path d="M69.306 50.7397C74.8287 50.7397 79.3058 46.2627 79.3058 40.7399C79.3058 35.2172 74.8287 30.7401 69.306 30.7401C63.7832 30.7401 59.3062 35.2172 59.3062 40.7399C59.3062 46.2627 63.7832 50.7397 69.306 50.7397Z" fill="#C3F584"/>
<path d="M127.252 63.1869C130.631 63.1869 133.369 60.4484 133.369 57.0703C133.369 53.6922 130.631 50.9538 127.252 50.9538C123.874 50.9538 121.136 53.6922 121.136 57.0703C121.136 60.4484 123.874 63.1869 127.252 63.1869Z" fill="#44B9CB"/>
<path d="M68.2454 40.9188C68.2454 42.0915 69.1996 43.0429 70.3695 43.0429C71.5394 43.0429 72.4936 42.0886 72.4936 40.9188C72.4936 39.7489 71.5394 38.7946 70.3695 38.7946C69.1996 38.7946 68.2454 39.746 68.2454 40.9188Z" fill="#231F20"/>
<path d="M92.4501 35.0404C92.4501 33.8275 91.4642 32.8416 90.2512 32.8416C89.0383 32.8416 88.0524 33.8275 88.0524 35.0404C88.0524 36.2534 89.0383 37.2393 90.2512 37.2393C91.4642 37.2393 92.4501 36.2534 92.4501 35.0404Z" fill="#231F20"/>
<path d="M108.759 50.7716C108.707 50.7601 108.658 50.7515 108.607 50.7457C107.963 50.6768 107.368 51.0993 107.221 51.7288C107.144 52.0622 107.201 52.4042 107.382 52.6945C107.563 52.9848 107.845 53.1889 108.178 53.2665C108.23 53.278 108.279 53.2866 108.331 53.2924C108.975 53.3614 109.57 52.9389 109.716 52.3094C109.794 51.976 109.736 51.6339 109.555 51.3436C109.374 51.0533 109.092 50.8492 108.759 50.7716Z" fill="#231F20"/>
<path d="M127.089 56.4547C127.043 56.4432 126.997 56.4375 126.954 56.4317C126.43 56.3742 125.939 56.6818 125.766 57.1589C125.735 57.2308 125.709 57.3055 125.689 57.3831C125.545 58.0011 125.933 58.6162 126.551 58.7599C126.597 58.7714 126.64 58.7772 126.686 58.7829C127.264 58.8462 127.799 58.4668 127.931 57.8919C127.937 57.8718 127.945 57.8545 127.948 57.8315C128.017 57.5326 127.965 57.225 127.804 56.9663C127.641 56.7048 127.388 56.5237 127.089 56.4547Z" fill="#231F20"/>
<path d="M80.8521 52.8066C80.4382 52.8727 79.642 52.8985 78.9349 52.3093C78.6589 52.0794 78.2738 52.0133 77.9634 52.1915C77.3942 52.5134 77.3655 53.2435 77.811 53.6171C78.7279 54.3903 79.9093 54.7065 81.1309 54.5082C81.2803 54.4852 81.4269 54.4507 81.5735 54.4133C82.5882 54.1403 83.4821 53.5137 83.9678 52.7146C84.1863 52.3553 84.3444 51.9615 84.4565 51.5562C84.7554 51.8494 85.0917 52.1139 85.4625 52.3122C86.2846 52.7548 87.3711 52.8468 88.3857 52.5737C88.5323 52.5335 88.676 52.4875 88.8168 52.4329C89.9637 51.9931 90.8174 51.1366 91.2255 50.0213C91.3693 49.6247 91.2227 49.1619 90.8547 48.955C90.3747 48.6848 89.7884 48.9176 89.613 49.412C89.2997 50.2887 88.5926 50.6709 88.1989 50.8233C87.5349 51.0762 86.7818 51.0676 86.2817 50.7945C85.9483 50.6163 85.6493 50.3404 85.3935 50.0328C85.0486 49.6189 85.1492 49.0096 85.5717 48.6762C85.635 48.6273 85.6982 48.5727 85.7557 48.5181C86.9974 47.3827 87.3452 45.8306 86.6237 44.6492C86.1926 43.945 85.1118 43.2609 82.4128 43.9881C79.7138 44.7153 79.1246 45.8536 79.1073 46.6785C79.0786 48.061 80.1622 49.228 81.8063 49.5844C81.8897 49.6017 81.9759 49.6161 82.0593 49.6276C82.5882 49.6994 82.9705 50.1852 82.8813 50.7141C82.8152 51.105 82.6945 51.493 82.4991 51.8121C82.1972 52.3036 81.5534 52.6916 80.8521 52.8066Z" fill="#231F20"/>
<path d="M113.43 60.5049C112.559 60.3957 112.007 59.6829 111.99 58.6395C111.981 58.1566 111.582 57.7743 111.09 57.7915C110.607 57.8088 110.251 58.2629 110.265 58.7458C110.326 60.6113 111.504 62.0024 113.212 62.2151C113.367 62.2353 113.516 62.2439 113.666 62.2439C114.264 62.2439 114.81 62.0887 115.29 61.7955C115.597 62.425 116.115 62.9308 116.819 63.2614C117.282 63.4798 117.759 63.5862 118.233 63.5862C119.363 63.5862 120.455 62.9797 121.194 61.8702C121.426 61.5196 121.392 61.0367 121.084 60.7492C120.682 60.3727 120.058 60.4618 119.768 60.9016C119.196 61.7725 118.348 62.08 117.555 61.7064C117.448 61.6546 117.247 61.5598 117.063 61.3672C116.738 61.0223 116.833 60.479 117.21 60.1887C117.405 60.0393 117.557 59.8409 117.649 59.6024C117.928 58.8579 117.48 58.0014 116.652 57.6909C116.287 57.553 115.893 57.5386 115.54 57.6507C115.117 57.7829 114.79 58.0847 114.643 58.4785C114.528 58.7861 114.537 59.1137 114.646 59.4127C114.772 59.7576 114.677 60.1571 114.361 60.3439C113.973 60.571 113.597 60.5279 113.43 60.5049Z" fill="#231F20"/>
<path d="M102.025 50.901L96.4224 49.2224C95.7383 49.0183 95.0169 49.4064 94.8128 50.0905C94.6087 50.7746 94.9968 51.496 95.6809 51.7001L101.283 53.3787C101.407 53.4161 101.533 53.4333 101.654 53.4333C102.211 53.4333 102.723 53.0712 102.893 52.5107C103.097 51.8266 102.709 51.1051 102.025 50.901Z" fill="#231F20"/>
<path d="M141.256 56.5149L139.69 56.4C140.308 51.6199 140.305 46.6129 139.661 42.4594C139.543 41.7035 138.801 41.2149 138.06 41.4046C137.864 41.4534 133.386 42.6204 128.359 44.9946C127.988 44.8078 127.454 44.5462 126.781 44.2387C125.26 43.5431 124.536 41.7696 125.183 40.229C126.861 36.225 126.686 31.2725 124.496 26.7253C122.053 21.655 117.531 15.9696 112.093 11.1263C106.336 6.00139 100.274 2.43722 95.0225 1.09203C89.6015 -0.299144 81.8207 0.00553495 73.6748 1.92559C65.3335 3.89163 58.0471 7.2661 53.6896 11.1838C47.481 16.7629 39.979 27.8837 39.5047 49.1739C39.3524 56.0665 40.9218 61.3697 44.1727 64.9339C47.481 68.5613 51.4965 69.1792 53.0716 69.2741C53.336 69.2913 53.6005 69.2971 53.862 69.2971C57.1934 69.2971 60.2804 68.0554 61.8096 67.3224C64.4971 70.4123 67.8256 72.3324 71.9962 73.3068C74.7297 73.9478 77.5149 74.2668 80.2829 74.2668C83.3326 74.2668 86.3621 73.8788 89.2796 73.1027C92.4528 72.2577 95.399 70.9671 97.7819 69.4034C98.9201 68.6561 100.418 68.7682 101.461 69.642C104.206 71.9415 107.923 73.8385 112.369 75.1119C115.396 75.977 118.33 76.4025 121.064 76.4025C126.816 76.4025 131.679 74.5313 134.616 70.9843C135.315 70.1422 135.965 69.1074 136.557 67.9002L137.982 68.6101C138.166 68.7021 138.365 68.7452 138.557 68.7452C139.077 68.7452 139.578 68.429 139.776 67.8887C140.003 67.2621 139.687 66.5665 139.089 66.2704L136.436 64.9482C136.433 64.9482 136.433 64.9454 136.43 64.9454L133.852 63.6605C133.248 63.3587 132.487 63.5312 132.13 64.106C131.719 64.7643 131.972 65.6151 132.65 65.9514C133.567 66.4084 133.863 67.561 133.3 68.4175C133.082 68.751 132.857 69.0556 132.627 69.3345C128.957 73.7667 121.466 75.0285 113.085 72.6256C104.68 70.2197 99.0638 65.3305 98.7735 60.1768C98.7448 59.6738 98.7419 59.1363 98.762 58.5701C98.7936 57.6992 99.5524 57.0294 100.42 57.1157C100.464 57.1185 100.507 57.1214 100.547 57.1214C101.205 57.1214 101.769 56.6213 101.832 55.9544C101.901 55.2445 101.381 54.6121 100.671 54.5431L94.7408 53.9654C93.9877 53.8935 93.3238 54.477 93.3209 55.2531C93.318 55.9286 93.8699 56.4804 94.5425 56.5465L96.3016 56.719C96.1636 58.0326 96.1262 59.2456 96.1866 60.3321C96.2182 60.8983 96.3016 61.4588 96.4194 62.0135C97.0432 64.9051 95.6606 67.8714 92.9559 69.0758C87.9056 71.3264 80.7141 72.6974 72.5826 70.7917C64.9915 69.0125 60.519 63.4967 57.6274 52.3385C54.7473 41.235 56.2247 28.0044 56.2391 27.8722C56.3196 27.1622 55.8108 26.5213 55.1038 26.4379C54.3967 26.3545 53.7528 26.8633 53.6695 27.5733C53.6033 28.1338 52.1202 41.4046 55.121 52.9852C55.8482 55.7906 56.676 58.2683 57.6217 60.4499C58.9324 63.4737 56.5984 66.8625 53.3102 66.6929C53.2814 66.6901 53.2527 66.6901 53.2268 66.6872C51.3039 66.5694 41.7323 65.1724 42.0888 49.2256C42.54 28.861 49.585 18.3409 55.4142 13.1039C59.4612 9.46784 66.3309 6.30895 74.2641 4.44063C81.9012 2.6413 89.4204 2.32512 94.3758 3.59558C105.203 6.37218 117.71 18.6053 122.162 27.8463C122.855 29.2864 123.315 30.7695 123.545 32.2354C124.318 37.1505 119.848 41.2953 114.968 40.3267C114.847 40.3037 114.726 40.2778 114.602 40.2548C113.183 37.6219 106.862 26.3028 98.2446 16.7859C97.7359 16.2254 96.8506 16.2139 96.3274 16.7859C95.8704 17.286 95.9135 18.065 96.3677 18.5651C99.2851 21.793 101.935 25.2336 104.206 28.4557C105.836 30.7667 105.818 33.8566 104.177 36.156C103.091 37.6765 101.898 39.5506 100.82 41.6891C100.271 42.7785 99.7537 43.9368 99.2708 45.1469L98.1325 44.5462C97.5347 44.23 96.7701 44.3852 96.3993 44.9515C95.9739 45.5982 96.2067 46.4548 96.8764 46.8083L102.148 49.5878C102.341 49.6884 102.548 49.7373 102.752 49.7373C103.306 49.7373 103.838 49.3808 104.005 48.7715C104.169 48.1822 103.852 47.5614 103.312 47.2739C102.315 46.7479 101.892 45.5378 102.349 44.506C102.602 43.9368 102.864 43.385 103.131 42.8503C104.298 40.5394 105.623 38.5417 106.764 37.0068C107.557 35.9405 109.179 36.0181 109.86 37.1592C111.596 40.0651 112.579 41.9564 112.605 42.0053C112.631 42.0542 112.659 42.103 112.691 42.149C112.694 42.1519 112.694 42.1576 112.697 42.1605C112.74 42.2237 112.792 42.2784 112.843 42.3301C112.858 42.3445 112.869 42.356 112.884 42.3675C112.93 42.4077 112.976 42.4451 113.024 42.4796C113.039 42.4911 113.053 42.4997 113.068 42.5112C113.131 42.5514 113.197 42.583 113.263 42.6118C113.28 42.6175 113.295 42.6233 113.312 42.629C113.372 42.652 113.435 42.6693 113.499 42.6808C113.51 42.6836 113.519 42.6865 113.53 42.6894C120.992 43.98 127.643 47.5355 127.709 47.5729L128.293 47.8891L128.891 47.5988C131.113 46.5151 133.283 45.6701 135.013 45.0636C136.177 44.6554 137.419 45.4746 137.485 46.7077C137.617 49.1883 137.554 51.8355 137.295 54.454C137.2 55.4313 136.332 56.1499 135.352 56.078C134.596 56.0205 133.947 56.627 133.964 57.4002C133.978 58.0757 134.545 58.6103 135.217 58.6592L137.922 58.8604C137.951 58.8661 137.974 58.8776 138.002 58.8805C138.071 58.892 138.138 58.8978 138.204 58.8978C138.238 58.8978 138.27 58.892 138.301 58.8891L141.101 59.0961C141.133 59.099 141.167 59.099 141.199 59.099C141.923 59.099 142.524 58.4982 142.489 57.7394C142.472 57.084 141.914 56.5638 141.256 56.5149Z" fill="#231F20"/>
<path d="M140.227 61.3873L134.588 59.838C133.898 59.6454 133.188 60.0536 132.998 60.7434C132.809 61.4332 133.214 62.1432 133.904 62.3329L139.543 63.8822C139.658 63.9138 139.773 63.9282 139.885 63.9282C140.454 63.9282 140.975 63.5516 141.133 62.9768C141.322 62.2869 140.917 61.577 140.227 61.3873Z" fill="#231F20"/>
<path d="M11.4657 103.039H3.65615V110.797H0V92.5676H3.65615V100.064H11.4657V92.5676H15.1219V110.797H11.4657V103.039Z" fill="#141818"/>
<path d="M24.7855 111.033C20.5803 111.033 17.5249 108.107 17.5249 103.562C17.5249 98.9922 20.5027 96.092 24.7855 96.092C28.9648 96.092 31.9167 98.9376 31.9167 103.249C31.9167 103.72 31.8908 104.189 31.8132 104.66H21.2357C21.4196 106.802 22.8827 108.003 24.7079 108.003C26.2744 108.003 27.1367 107.219 27.6081 106.253H31.5516C30.767 108.917 28.364 111.033 24.7855 111.033ZM21.2587 102.206H28.1283C28.0766 100.3 26.5618 99.0986 24.682 99.0986C22.9315 99.0957 21.5461 100.22 21.2587 102.206Z" fill="#141818"/>
<path d="M39.8642 96.092C42.1895 96.092 43.7819 97.19 44.6442 98.3915V96.3277H48.3262V110.797H44.6442V108.682C43.7819 109.935 42.1378 111.033 39.8383 111.033C36.1822 111.033 33.2561 108.029 33.2561 103.511C33.2561 98.9922 36.1793 96.092 39.8642 96.092ZM40.8041 99.3055C38.8438 99.3055 36.9899 100.769 36.9899 103.511C36.9899 106.253 38.8438 107.819 40.8041 107.819C42.8161 107.819 44.6442 106.305 44.6442 103.562C44.6413 100.82 42.8133 99.3055 40.8041 99.3055Z" fill="#141818"/>
<path d="M51.3959 91.4699H55.052V110.797H51.3959V91.4699Z" fill="#141818"/>
<path d="M58.7112 99.3307H56.9866V96.327H58.7112V92.7485H62.3932V96.327H65.6326V99.3307H62.3932V106.33C62.3932 107.296 62.7841 107.715 63.9338 107.715H65.6326V110.796H63.3331C60.5651 110.796 58.7112 109.621 58.7112 106.304V99.3307Z" fill="#141818"/>
<path d="M67.8832 91.4699H71.5393V98.1297C72.4792 96.9024 74.0975 96.1177 76.0319 96.1177C79.2972 96.1177 81.6742 98.3108 81.6742 102.306V110.794H78.0181V102.803C78.0181 100.478 76.739 99.2248 74.8046 99.2248C72.8184 99.2248 71.5393 100.478 71.5393 102.803V110.794H67.8832V91.4699Z" fill="#141818"/>
<path d="M93.9074 96.327H97.7992L88.8399 117.637H84.9481L88.0811 110.428L82.2836 96.3241H86.3852L90.119 106.43L93.9074 96.327Z" fill="#141818"/>
<path d="M105.744 110.978C101.955 110.978 99.0322 108.992 98.9805 105.545H102.898C103.002 107.008 103.967 107.974 105.666 107.974C107.391 107.974 108.408 107.06 108.408 105.755C108.408 101.812 99.0063 104.189 99.0322 97.5807C99.0322 94.2896 101.697 92.3063 105.456 92.3063C109.19 92.3063 111.751 94.2119 111.987 97.5031H107.966C107.888 96.3016 106.922 95.3617 105.353 95.3358C103.916 95.2841 102.846 95.9883 102.846 97.4772C102.846 101.133 112.197 99.0954 112.197 105.522C112.197 108.394 109.897 110.978 105.744 110.978Z" fill="#141818"/>
<path d="M135.048 102.806C135.048 100.506 133.769 99.305 131.834 99.305C129.874 99.305 128.595 100.506 128.595 102.806V110.797H124.939V102.806C124.939 100.506 123.66 99.305 121.725 99.305C119.742 99.305 118.46 100.506 118.46 102.806V110.797H114.804V96.3272H118.46V98.0777C119.374 96.8762 120.915 96.1202 122.717 96.1202C124.962 96.1202 126.818 97.086 127.81 98.8882C128.75 97.2441 130.656 96.1202 132.771 96.1202C136.243 96.1202 138.701 98.3134 138.701 102.309V110.797H135.045V102.806H135.048Z" fill="#141818"/>
<path d="M141.256 92.4612C141.256 91.2597 142.196 90.3198 143.501 90.3198C144.78 90.3198 145.746 91.2597 145.746 92.4612C145.746 93.6627 144.78 94.6026 143.501 94.6026C142.196 94.6026 141.256 93.6627 141.256 92.4612ZM141.647 96.3272H145.303V110.797H141.647V96.3272Z" fill="#141818"/>
<path d="M148.37 91.4699H152.026V110.797H148.37V91.4699Z" fill="#141818"/>
<path d="M161.52 111.033C157.315 111.033 154.26 108.107 154.26 103.562C154.26 98.9922 157.237 96.092 161.52 96.092C165.699 96.092 168.651 98.9376 168.651 103.249C168.651 103.72 168.626 104.189 168.548 104.66H157.97C158.154 106.802 159.615 108.003 161.443 108.003C163.009 108.003 163.871 107.219 164.343 106.253H168.286C167.502 108.917 165.099 111.033 161.52 111.033ZM157.993 102.206H164.863C164.811 100.3 163.297 99.0986 161.417 99.0986C159.666 99.0957 158.281 100.22 157.993 102.206Z" fill="#141818"/>
<path d="M176.306 111.033C172.676 111.033 170.143 108.917 169.985 106.227H173.667C173.797 107.325 174.817 108.158 176.28 108.158C177.717 108.158 178.499 107.506 178.499 106.67C178.499 104.083 170.324 105.73 170.324 100.427C170.324 98.0236 172.466 96.092 176.044 96.092C179.545 96.092 181.658 97.9977 181.868 100.872H178.37C178.266 99.7482 177.378 98.9922 175.941 98.9922C174.584 98.9922 173.877 99.5412 173.877 100.378C173.877 103.016 181.894 101.369 182 106.672C182 109.15 179.833 111.033 176.306 111.033Z" fill="#141818"/>
<path d="M70.8408 137.088C70.7287 137.519 70.5735 137.933 70.3435 138.318C69.7083 139.382 68.6793 139.623 67.6359 138.962C67.5296 138.893 67.4405 138.79 67.2507 138.752C67.3916 140.253 67.5209 141.719 67.9205 143.144C67.9923 143.397 68.1015 143.63 68.2395 143.854C68.4551 144.199 68.4034 144.556 68.136 144.768C67.8687 144.981 67.5008 144.947 67.2105 144.682C66.9921 144.484 66.8685 144.225 66.7621 143.958C66.4862 143.248 66.3482 142.503 66.2304 141.756C65.8366 139.287 65.736 136.801 65.7992 134.306C65.8308 133.078 65.8653 131.854 65.9889 130.632C66.0177 130.359 66.0464 130.089 66.0866 129.816C66.1096 129.649 66.1556 129.483 66.2505 129.339C66.3798 129.138 66.5638 129.029 66.8081 129.043C67.0524 129.057 67.2249 129.187 67.3226 129.408C67.4261 129.641 67.4606 129.882 67.3628 130.129C67.3284 130.213 67.291 130.302 67.2881 130.391C67.2594 131.118 67.2392 131.848 67.2163 132.581C67.3743 132.575 67.3743 132.466 67.4088 132.392C67.7969 131.506 68.2223 130.641 68.7339 129.819C68.9351 129.497 69.1421 129.181 69.3979 128.899C70.0963 128.132 70.9155 128.313 71.2346 129.304C71.3725 129.73 71.4386 130.17 71.4588 130.612C71.5651 132.797 71.3869 134.961 70.8408 137.088ZM70.1251 131.15C70.1222 130.908 70.0848 130.664 70.059 130.377C69.898 130.477 69.8606 130.578 69.806 130.667C68.9638 132.07 68.3487 133.576 67.817 135.116C67.7882 135.203 67.7365 135.297 67.7825 135.381C67.9607 135.717 67.8515 136.048 67.7624 136.37C67.5612 137.082 67.9607 137.542 68.3631 137.804C68.7511 138.054 68.9524 138.005 69.188 137.597C69.3864 137.255 69.5013 136.881 69.5905 136.499C70.0044 134.743 70.1567 132.955 70.1251 131.15Z" fill="#44B9CB"/>
<path d="M73.1891 135.861C73.1546 136.016 73.2236 136.145 73.2839 136.272C73.6231 136.984 74.2094 137.381 74.9625 137.545C75.2672 137.611 75.5575 137.548 75.8076 137.344C75.9197 137.255 76.0375 137.171 76.1784 137.134C76.6325 137.01 77.0608 137.418 76.9429 137.878C76.8682 138.172 76.6756 138.384 76.4371 138.554C75.8507 138.965 75.204 139.017 74.5285 138.856C72.8614 138.462 71.7145 137.056 71.7375 135.343C71.7634 133.417 72.528 131.779 73.8703 130.411C74.2612 130.014 74.7383 129.753 75.3046 129.669C76.3681 129.511 77.1815 130.178 77.1499 131.253C77.1154 132.443 76.759 133.55 76.0059 134.478C75.3218 135.32 74.4221 135.82 73.304 135.84C73.2667 135.84 73.2293 135.852 73.1891 135.861ZM73.4707 134.573C73.7352 134.541 73.968 134.421 74.1922 134.285C75.2988 133.619 75.6092 132.515 75.799 131.434C75.8076 131.063 75.7357 130.997 75.454 131.035C75.1522 131.075 74.9309 131.262 74.7297 131.469C73.9565 132.265 73.4822 133.225 73.2178 134.294C73.1603 134.538 73.2236 134.602 73.4707 134.573Z" fill="#44B9CB"/>
<path d="M110.987 125.783C110.734 125.959 110.441 126.028 110.144 126.085C109.515 126.203 106.319 126.832 105.833 126.922C105.597 126.965 105.606 127.14 105.594 127.307C105.514 128.362 105.413 129.414 105.359 130.471C105.18 133.843 105.313 137.206 105.721 140.555C105.755 140.839 105.83 141.118 105.859 141.402C105.89 141.736 105.704 142.006 105.408 142.098C105.094 142.196 104.772 142.069 104.614 141.762C104.542 141.624 104.499 141.471 104.465 141.319C104.425 141.141 104.402 140.96 104.379 140.779C103.893 136.933 103.812 133.076 104.068 129.21C104.105 128.649 104.163 128.091 104.209 127.531C104.215 127.453 104.243 127.376 104.174 127.284C103.683 127.341 102.401 127.606 101.763 127.735C101.573 127.775 101.375 127.807 101.182 127.813C100.834 127.821 100.524 127.588 100.438 127.284C100.354 126.991 100.464 126.729 100.777 126.522C101.11 126.301 101.458 126.114 101.869 126.335C101.976 126.393 102.073 126.335 102.171 126.306C103.102 126.042 103.071 126.097 104.019 125.907C104.399 125.832 104.399 125.829 104.442 125.433C104.6 123.993 104.801 122.558 105.022 121.127C105.04 121.009 105.06 120.897 105.109 120.788C105.255 120.463 105.514 120.313 105.824 120.38C106.129 120.446 106.316 120.696 106.29 121.052C106.258 121.48 106.201 121.909 106.155 122.337C106.049 123.311 105.942 124.283 105.839 125.257C105.81 125.519 105.821 125.536 106.077 125.49C106.437 125.424 109.311 124.858 110.262 124.688C110.377 124.668 110.495 124.645 110.61 124.639C110.906 124.628 111.165 124.806 111.248 125.065C111.329 125.332 111.234 125.611 110.987 125.783Z" fill="#44B9CB"/>
<path d="M84.7928 125.783C84.5399 125.959 84.2467 126.028 83.9506 126.085C83.3211 126.203 80.1249 126.832 79.6391 126.922C79.4034 126.965 79.412 127.14 79.4005 127.307C79.3201 128.362 79.2195 129.414 79.1649 130.471C78.9866 133.843 79.1189 137.206 79.527 140.555C79.5615 140.839 79.6362 141.118 79.665 141.402C79.6966 141.736 79.5098 142.006 79.2137 142.098C78.9004 142.196 78.5785 142.069 78.4204 141.762C78.3485 141.624 78.3054 141.471 78.2709 141.319C78.2307 141.141 78.2077 140.96 78.1847 140.779C77.6989 136.933 77.6185 133.076 77.8743 129.21C77.9116 128.649 77.9691 128.091 78.0151 127.531C78.0209 127.453 78.0496 127.376 77.9806 127.284C77.4891 127.341 76.2072 127.606 75.5691 127.735C75.3794 127.775 75.181 127.807 74.9884 127.813C74.6407 127.821 74.3302 127.588 74.244 127.284C74.1606 126.991 74.2699 126.729 74.5832 126.522C74.9166 126.301 75.2644 126.114 75.6754 126.335C75.7818 126.393 75.8795 126.335 75.9772 126.306C76.9085 126.042 76.8769 126.097 77.8254 125.907C78.2048 125.832 78.2048 125.829 78.2479 125.433C78.406 123.993 78.6072 122.558 78.8285 121.127C78.8458 121.009 78.8659 120.897 78.9148 120.788C79.0614 120.463 79.3201 120.313 79.6305 120.38C79.9352 120.446 80.122 120.696 80.0961 121.052C80.0645 121.48 80.007 121.909 79.961 122.337C79.8547 123.311 79.7483 124.283 79.6449 125.257C79.6161 125.519 79.6276 125.536 79.8834 125.49C80.2427 125.424 83.1171 124.858 84.0685 124.688C84.1834 124.668 84.3013 124.645 84.4163 124.639C84.7123 124.628 84.971 124.806 85.0544 125.065C85.1348 125.332 85.04 125.611 84.7928 125.783Z" fill="#44B9CB"/>
<path d="M91.4641 123.611C91.4123 124.496 91.3203 125.381 91.2111 126.261C90.7972 129.661 90.527 133.067 90.6248 136.494C90.6535 137.549 90.665 138.609 90.8892 139.65C90.9582 139.977 90.8288 140.253 90.5759 140.383C90.3287 140.509 90.0096 140.452 89.7826 140.233C89.6245 140.084 89.5526 139.888 89.5095 139.681C89.3629 138.989 89.3256 138.284 89.2997 137.58C89.2537 136.29 89.2077 134.996 89.2623 133.703C89.2652 133.651 89.2623 133.599 89.2623 133.547C89.2364 133.545 89.2106 133.542 89.1847 133.536C89.1157 133.729 89.0467 133.921 88.9806 134.114C88.6673 135.028 88.3224 135.93 87.8711 136.787C87.6326 137.238 87.3653 137.672 87.0088 138.04C86.1063 138.974 85.06 138.862 84.3788 137.753C83.8931 136.962 83.7206 136.08 83.6832 135.171C83.6286 133.884 83.8729 132.654 84.4421 131.489C84.5225 131.326 84.6145 131.168 84.7123 131.012C85.5487 129.702 86.8536 129.227 88.3397 129.684C88.7881 129.822 88.7852 129.822 88.8915 129.357C89.3371 127.382 89.6935 125.393 90.001 123.392C90.024 123.237 90.047 123.082 90.0815 122.93C90.1677 122.559 90.4236 122.326 90.7484 122.317C91.0818 122.309 91.3577 122.553 91.4468 122.941C91.4928 123.168 91.4756 123.39 91.4641 123.611ZM88.2448 131.038C87.1066 130.676 86.3334 130.915 85.7873 131.857C85.6838 132.038 85.5918 132.225 85.5113 132.418C85.1923 133.185 85.0313 133.987 85.0399 134.861C85.0256 135.307 85.0802 135.787 85.2066 136.255C85.2641 136.471 85.3389 136.678 85.4395 136.876C85.6895 137.362 85.8016 137.376 86.1408 136.965C86.3161 136.752 86.4685 136.525 86.5921 136.281C86.776 135.922 86.9571 135.559 87.1123 135.186C87.6297 133.958 88.0292 132.688 88.3799 131.403C88.4316 131.242 88.4661 131.107 88.2448 131.038Z" fill="#44B9CB"/>
<path d="M92.7058 135.861C92.6713 136.016 92.7403 136.145 92.8006 136.272C93.1398 136.984 93.7262 137.381 94.4792 137.545C94.7839 137.611 95.0742 137.548 95.3243 137.344C95.4364 137.255 95.5542 137.171 95.6951 137.134C96.1492 137.01 96.5775 137.418 96.4597 137.878C96.3849 138.172 96.1923 138.384 95.9538 138.554C95.3674 138.965 94.7207 139.017 94.0452 138.856C92.3781 138.462 91.2313 137.056 91.2542 135.343C91.2801 133.417 92.0447 131.779 93.387 130.411C93.7779 130.014 94.2551 129.753 94.8213 129.669C95.8848 129.511 96.6982 130.178 96.6666 131.253C96.6321 132.443 96.2757 133.55 95.5226 134.478C94.8385 135.32 93.9389 135.82 92.8208 135.84C92.7834 135.84 92.746 135.852 92.7058 135.861ZM92.9903 134.573C93.2548 134.541 93.4876 134.421 93.7118 134.285C94.8184 133.619 95.1288 132.515 95.3185 131.434C95.3272 131.063 95.2553 130.997 94.9736 131.035C94.6718 131.075 94.4505 131.262 94.2493 131.469C93.4761 132.265 93.0018 133.225 92.7374 134.294C92.677 134.538 92.7403 134.602 92.9903 134.573Z" fill="#44B9CB"/>
<path d="M103.232 134.217C103.226 135.286 103.232 136.358 103.232 137.427C103.232 137.623 103.237 137.818 103.154 138.005C102.944 138.474 102.389 138.543 102.079 138.134C101.947 137.962 101.889 137.764 101.886 137.551C101.875 137.002 101.858 136.456 101.861 135.907C101.866 134.444 101.878 132.984 101.886 131.521C101.889 131.115 101.861 130.713 101.8 130.293C101.628 130.325 101.573 130.469 101.496 130.575C101.033 131.227 100.682 131.943 100.386 132.685C99.7767 134.217 99.3685 135.809 99.0121 137.416C98.9604 137.654 98.8943 137.899 99.0265 138.14C99.0552 138.192 99.0552 138.267 99.0523 138.33C99.0351 138.655 98.5264 139.14 98.1441 139.207C97.7963 139.264 97.4398 139.054 97.276 138.678C97.1265 138.338 97.0777 137.973 97.0432 137.611C96.8621 135.812 96.9282 134.013 96.9972 132.21C97.0231 131.546 97.0633 130.88 97.0978 130.216C97.1064 130.046 97.1122 129.876 97.1984 129.721C97.3249 129.494 97.5146 129.376 97.7762 129.394C98.0377 129.414 98.2073 129.557 98.2964 129.802C98.351 129.951 98.3453 130.106 98.3481 130.264C98.3568 131.569 98.3366 132.874 98.2964 134.179C98.2935 134.243 98.2964 134.306 98.2964 134.366C98.3194 134.366 98.3424 134.366 98.3683 134.366C98.5235 133.898 98.6729 133.423 98.8339 132.958C99.1328 132.093 99.495 131.256 99.9549 130.463C100.159 130.112 100.38 129.773 100.636 129.46C100.817 129.235 101.013 129.026 101.24 128.847C101.973 128.27 102.72 128.494 103.016 129.382C103.166 129.833 103.206 130.302 103.226 130.77C103.269 131.92 103.237 133.07 103.232 134.217Z" fill="#44B9CB"/>
<path d="M112.498 138.769C112.478 139.175 112.087 139.453 111.697 139.336C111.372 139.238 111.179 138.996 111.038 138.706C110.826 138.266 110.751 137.789 110.679 137.312C110.604 136.809 110.596 136.303 110.581 135.728C110.4 135.869 110.366 136.013 110.3 136.134C110.041 136.617 109.768 137.091 109.417 137.516C109.176 137.809 108.908 138.077 108.584 138.278C107.75 138.789 106.891 138.554 106.436 137.692C106.195 137.232 106.08 136.734 106.069 136.223C106.023 134.15 106.753 132.368 108.164 130.871C108.747 130.25 109.475 129.891 110.366 129.968C110.561 129.985 110.757 130.02 110.935 130.098C111.176 130.201 111.406 130.258 111.682 130.235C112.09 130.204 112.409 130.609 112.392 131.095C112.381 131.405 112.335 131.719 112.294 132.029C112.179 132.894 112.05 133.759 111.981 134.63C111.906 135.57 111.932 136.507 112.082 137.439C112.131 137.752 112.211 138.051 112.375 138.324C112.458 138.462 112.507 138.606 112.498 138.769ZM110.185 131.256C109.986 131.264 109.802 131.333 109.633 131.434C109.406 131.566 109.202 131.727 109.029 131.926C108.037 133.049 107.506 134.363 107.42 135.76C107.428 136.145 107.443 136.43 107.517 136.708C107.658 137.24 107.767 137.272 108.158 136.884C108.572 136.476 108.854 135.976 109.115 135.464C109.716 134.291 110.193 133.067 110.627 131.825C110.785 131.365 110.682 131.233 110.185 131.256Z" fill="#44B9CB"/>
<path d="M116.114 142.455C115.945 142.722 115.623 142.82 115.284 142.705C114.91 142.576 114.697 142.28 114.525 141.952C114.258 141.44 114.105 140.886 113.982 140.325C113.602 138.612 113.43 136.876 113.355 135.125C113.283 133.47 113.269 131.811 113.275 130.156C113.275 128.865 113.269 127.572 113.277 126.281C113.283 125.367 113.375 124.459 113.456 123.548C113.47 123.392 113.502 123.234 113.556 123.091C113.686 122.76 113.996 122.613 114.315 122.717C114.649 122.823 114.881 123.16 114.778 123.473C114.657 123.844 114.666 124.22 114.657 124.594C114.58 128.417 114.574 132.24 114.772 136.06C114.847 137.505 115.034 138.943 115.387 140.354C115.442 140.569 115.508 140.782 115.58 140.989C115.663 141.222 115.775 141.435 115.971 141.61C116.247 141.846 116.284 142.185 116.114 142.455Z" fill="#44B9CB"/>
</svg>
