<svg width="182" height="28" viewBox="0 0 182 28" fill="none" xmlns="http://www.w3.org/2000/svg">
<path d="M11.4657 13.0603H3.65615V20.8181H0V2.58908H3.65615V10.0853H11.4657V2.58908H15.1219V20.8181H11.4657V13.0603Z" fill="#141818"/>
<path d="M24.7854 21.0542C20.5803 21.0542 17.5248 18.1282 17.5248 13.5839C17.5248 9.01366 20.5027 6.11346 24.7854 6.11346C28.9647 6.11346 31.9166 8.95905 31.9166 13.2706C31.9166 13.7419 31.8908 14.2105 31.8132 14.6819H21.2356C21.4196 16.8232 22.8826 18.0247 24.7078 18.0247C26.2743 18.0247 27.1366 17.24 27.608 16.2742H31.5516C30.7669 18.9387 28.364 21.0542 24.7854 21.0542ZM21.2586 12.2272H28.1283C28.0765 10.3215 26.5617 9.12001 24.6819 9.12001C22.9315 9.11714 21.546 10.241 21.2586 12.2272Z" fill="#141818"/>
<path d="M39.8641 6.11346C42.1895 6.11346 43.7819 7.21146 44.6442 8.41293V6.34915H48.3262V20.8186H44.6442V18.703C43.7819 19.9563 42.1377 21.0542 39.8383 21.0542C36.1821 21.0542 33.256 18.0506 33.256 13.5321C33.256 9.01367 36.1792 6.11346 39.8641 6.11346ZM40.804 9.32697C38.8437 9.32697 36.9898 10.79 36.9898 13.5321C36.9898 16.2742 38.8437 17.8407 40.804 17.8407C42.8161 17.8407 44.6442 16.326 44.6442 13.5839C44.6413 10.8417 42.8132 9.32697 40.804 9.32697Z" fill="#141818"/>
<path d="M51.3959 1.49133H55.0521V20.8184H51.3959V1.49133Z" fill="#141818"/>
<path d="M58.7112 9.35218H56.9866V6.3485H58.7112V2.76996H62.3932V6.3485H65.6326V9.35218H62.3932V16.3512C62.3932 17.317 62.7841 17.7366 63.9338 17.7366H65.6326V20.8179H63.3331C60.5651 20.8179 58.7112 19.6423 58.7112 16.3253V9.35218Z" fill="#141818"/>
<path d="M67.8831 1.49133H71.5393V8.15117C72.4792 6.92383 74.0974 6.13913 76.0319 6.13913C79.2971 6.13913 81.6742 8.33225 81.6742 12.3276V20.8155H78.018V12.8248C78.018 10.4995 76.7389 9.24629 74.8045 9.24629C72.8183 9.24629 71.5393 10.4995 71.5393 12.8248V20.8155H67.8831V1.49133Z" fill="#141818"/>
<path d="M93.9074 6.34842H97.7992L88.8399 27.6587H84.9481L88.0811 20.4499L82.2836 6.34555H86.3852L90.119 16.4517L93.9074 6.34842Z" fill="#141818"/>
<path d="M105.744 20.9994C101.955 20.9994 99.0322 19.0132 98.9805 15.5669H102.898C103.002 17.0299 103.967 17.9957 105.666 17.9957C107.391 17.9957 108.408 17.0817 108.408 15.7767C108.408 11.8332 99.0063 14.2102 99.0322 7.60213C99.0322 4.31102 101.697 2.32773 105.456 2.32773C109.19 2.32773 111.751 4.23342 111.987 7.52453H107.966C107.888 6.32306 106.922 5.38315 105.353 5.35728C103.916 5.30554 102.846 6.00975 102.846 7.49865C102.846 11.1548 112.197 9.11691 112.197 15.5439C112.197 18.4154 109.897 20.9994 105.744 20.9994Z" fill="#141818"/>
<path d="M135.048 12.8274C135.048 10.5279 133.769 9.32646 131.834 9.32646C129.874 9.32646 128.595 10.5279 128.595 12.8274V20.818H124.939V12.8274C124.939 10.5279 123.66 9.32646 121.725 9.32646C119.742 9.32646 118.46 10.5279 118.46 12.8274V20.818H114.804V6.34865H118.46V8.09912C119.374 6.89765 120.915 6.14169 122.717 6.14169C124.962 6.14169 126.818 7.10747 127.81 8.90968C128.75 7.26556 130.656 6.14169 132.771 6.14169C136.243 6.14169 138.701 8.33482 138.701 12.3301V20.818H135.045V12.8274H135.048Z" fill="#141818"/>
<path d="M141.256 2.48266C141.256 1.28119 142.196 0.341278 143.501 0.341278C144.78 0.341278 145.746 1.28119 145.746 2.48266C145.746 3.68413 144.78 4.62403 143.501 4.62403C142.196 4.62403 141.256 3.68413 141.256 2.48266ZM141.647 6.34863H145.303V20.818H141.647V6.34863Z" fill="#141818"/>
<path d="M148.37 1.49133H152.026V20.8184H148.37V1.49133Z" fill="#141818"/>
<path d="M161.52 21.0542C157.315 21.0542 154.26 18.1282 154.26 13.5839C154.26 9.01366 157.237 6.11346 161.52 6.11346C165.699 6.11346 168.651 8.95905 168.651 13.2706C168.651 13.7419 168.626 14.2105 168.548 14.6819H157.97C158.154 16.8232 159.615 18.0247 161.443 18.0247C163.009 18.0247 163.871 17.24 164.343 16.2742H168.286C167.502 18.9387 165.099 21.0542 161.52 21.0542ZM157.993 12.2272H164.863C164.811 10.3215 163.297 9.12001 161.417 9.12001C159.666 9.11714 158.281 10.241 157.993 12.2272Z" fill="#141818"/>
<path d="M176.306 21.0542C172.676 21.0542 170.143 18.9387 169.985 16.2484H173.667C173.797 17.3464 174.817 18.1799 176.28 18.1799C177.717 18.1799 178.499 17.5274 178.499 16.691C178.499 14.1041 170.324 15.7511 170.324 10.448C170.324 8.04501 172.466 6.11346 176.044 6.11346C179.545 6.11346 181.658 8.01915 181.868 10.8935H178.37C178.266 9.76962 177.378 9.01367 175.941 9.01367C174.584 9.01367 173.877 9.56267 173.877 10.3991C173.877 13.0377 181.894 11.3907 182 16.6939C182 19.1716 179.833 21.0542 176.306 21.0542Z" fill="#141818"/>
</svg>
